<svg width="570" height="58" viewBox="0 0 570 58" fill="none" xmlns="http://www.w3.org/2000/svg">
<path d="M11.42 33.28C11.78 29.38 11.78 25.54 11.78 22.12V20.62H15.44V33.28H11.42ZM15.44 6.52V18.94H11.78V6.52H15.44ZM18.44 0.819997L14.84 4.84H12.98L3.98 1.72V22.12C3.98 33.58 4.1 46.9 0.38 57.34L0.98 57.7C7.82 51.34 10.34 43 11.24 34.96H15.44V47.74C15.44 48.46 15.26 48.88 14.36 48.88C13.4 48.88 9.44 48.64 9.44 48.64V49.42C11.78 49.9 12.68 50.74 13.34 51.94C13.94 53.08 14.18 55.06 14.3 57.7C22.46 56.98 23.54 54.1 23.54 48.58V7.6C24.62 7.42 25.28 6.94 25.64 6.52L18.44 0.819997ZM27.32 22.48C28.82 26.62 30.14 31.72 30.08 36.52C37.1 43.48 45.68 29.32 27.86 22.24L27.32 22.48ZM50.36 15.28H49.82V4.24C51.32 4 51.92 3.46 51.98 2.56L41.24 1.54V15.28H24.38L24.86 16.96H41.24V47.02C41.24 47.74 40.88 48.1 39.92 48.1C38.36 48.1 30.92 47.68 30.92 47.68V48.4C34.52 49.06 35.9 50.02 37.04 51.34C38.24 52.66 38.6 54.58 38.84 57.34C48.5 56.5 49.82 53.38 49.82 47.62V16.96H57.32C58.16 16.96 58.76 16.66 58.88 16C57.08 13.6 53.48 9.76 53.48 9.76L50.36 15.28ZM103.28 28.18H93.68V20.08C95 19.84 95.6 19.36 95.72 18.46L94.7 18.4C100.28 15.94 106.1 12.7 110.6 9.94C111.92 9.82 112.58 9.64 113.06 9.04L105.02 2.08L100.1 6.76H67.28L67.82 8.44H99.74C97.76 11.32 94.76 15.22 91.94 18.16L84.5 17.5V28.18H61.1L61.58 29.86H84.5V46.96C84.5 47.74 84.14 48.1 83.12 48.1C81.38 48.1 71.84 47.56 71.84 47.56V48.28C76.16 49.06 77.78 50.02 79.22 51.4C80.72 52.78 81.14 54.76 81.5 57.7C92.12 56.8 93.68 53.5 93.68 47.56V29.86H115.28C116.18 29.86 116.9 29.56 117.08 28.9C113.72 26.08 108.2 21.94 108.2 21.94L103.28 28.18ZM130.76 46.66V30.94H138.14V46.66H130.76ZM138.14 14.38V29.26H130.76V14.38H138.14ZM170.6 7.9L166.1 12.46H158.6C159.86 10.24 161 7.9 162.02 5.38C163.4 5.38 164.18 4.9 164.42 4.12L153.26 0.879997C151.94 9.7 149.06 19.36 146.24 25.72V15.7C147.44 15.4 148.22 14.92 148.64 14.38L141.26 8.56L137.54 12.7H133.58C135.74 10.36 138.44 7.36 140.24 5.26C141.68 5.26 142.52 4.84 142.82 3.76L131.24 0.999999C131.06 4.42 130.82 9.16 130.52 12.52L122.96 9.4V55.24H124.22C127.7 55.24 130.76 53.38 130.76 52.48V48.34H138.14V53.08H139.46C142.28 53.08 146.18 51.4 146.24 50.86V26.56L146.6 26.8C150.8 23.5 154.46 19.3 157.58 14.14H166.82C166.46 34.54 165.92 45.58 163.76 47.5C163.16 48.04 162.56 48.28 161.54 48.28C159.98 48.28 155.9 48.04 153.02 47.8L152.96 48.52C156.08 49.18 158.3 50.26 159.44 51.58C160.52 52.78 160.88 54.76 160.88 57.58C165.38 57.58 168.14 56.56 170.48 54.22C174.02 50.56 174.74 40.84 175.16 15.64C176.6 15.4 177.38 14.98 177.86 14.38L170.6 7.9ZM150.08 24.94C152.18 28.3 153.92 32.98 154.04 37.3C161.42 43.72 169.52 29.02 150.56 24.64L150.08 24.94ZM396.052 1.24C398.812 4.3 402.052 8.86 403.492 13.12C411.832 17.86 417.412 2.14 396.472 0.879997L396.052 1.24ZM413.932 39.34C411.772 40.48 409.552 41.62 407.512 42.7V21.1C408.952 20.92 409.552 20.44 409.912 20.02L403.132 14.38L399.352 18.1H391.672L392.212 19.78H399.232V43.6C399.232 45.04 398.752 45.7 395.932 47.44L402.052 56.26C402.832 55.72 403.672 54.7 404.212 53.26C408.952 47.62 412.372 42.52 414.112 39.82L413.932 39.34ZM445.672 39.64H445.072C443.572 43.36 442.432 45.76 441.592 46.9C440.992 47.5 440.392 47.74 439.372 47.8C438.232 47.86 435.952 47.86 433.672 47.86H425.992C423.712 47.86 423.172 47.56 423.172 46.36V26.92H434.512V32.02H435.892C438.712 32.02 442.972 30.64 443.032 30.22V9.64C444.712 9.34 445.732 8.56 446.272 7.96L437.752 1.42L433.732 6.04H412.312L412.852 7.72H434.512V25.24H424.012L414.772 21.82V47.92C414.772 53.62 417.112 54.82 424.852 54.82H432.772C445.732 54.82 449.092 53.86 449.092 50.32C449.092 48.88 448.372 47.98 445.852 47.08L445.672 39.64ZM491.992 43.12H484.312V37.72H491.992V43.12ZM484.312 30.58H491.992V36.04H484.312V30.58ZM484.312 23.5H492.412V25.48H493.972C494.212 25.48 494.392 25.48 494.632 25.48L491.392 28.9H484.312V23.5ZM467.932 21.82V15.76H475.492V21.82H467.932ZM492.412 15.76V21.82H484.312V15.76H492.412ZM500.332 35.62V31.72C501.472 31.48 502.132 31 502.492 30.58L495.532 25.36C498.172 24.94 501.172 23.8 501.232 23.38V16.96C502.312 16.72 502.972 16.24 503.332 15.82L495.592 10.12L491.812 14.08H484.312V9.4H506.212C507.112 9.4 507.772 9.1 507.952 8.44C504.772 5.86 499.672 2.26 499.672 2.26L495.172 7.72H484.312V3.4C485.812 3.16 486.412 2.56 486.472 1.66L475.492 0.639996V7.72H452.092L452.572 9.4H475.492V14.08H468.472L459.232 10.66V27.22H460.432C463.912 27.22 467.932 25.42 467.932 24.7V23.5H475.492V28.9H458.212L458.752 30.58H475.492V36.04H451.912L452.392 37.72H475.492V43.12H457.732L458.272 44.8H475.492V48.4C475.492 49.12 475.132 49.42 474.172 49.42C472.672 49.42 465.232 49 465.232 49V49.72C468.892 50.32 470.212 51.22 471.352 52.3C472.552 53.5 472.912 55.24 473.152 57.76C482.872 56.98 484.312 54.16 484.312 48.58V44.8H491.992V48.58H493.432C496.252 48.58 500.272 46.9 500.332 46.36V37.72H508.072C508.912 37.72 509.572 37.42 509.692 36.76C507.472 34.48 503.512 31.06 503.512 31.06L500.332 35.62ZM565.312 16.36C566.212 16.36 566.872 16.06 567.052 15.4C563.992 12.52 558.652 8.14 558.652 8.14L553.912 14.68H544.372V3.76C546.412 3.46 546.952 2.74 547.072 1.72L535.432 0.579997V14.68H513.952L514.432 16.36H530.572C527.632 27.88 520.912 40.42 511.492 48.28L512.032 48.76C522.292 43.96 530.032 37.36 535.432 29.26V41.68H524.632L525.112 43.36H535.432V57.52H537.112C540.772 57.52 544.372 55.84 544.372 55.12V43.36H553.732C554.572 43.36 555.232 43.06 555.412 42.4C552.832 39.7 548.212 35.56 548.212 35.56L544.372 41.32V16.66C547.432 30.82 552.412 40.9 561.172 47.44C562.552 43.18 565.372 40.36 568.852 39.64L569.032 38.98C559.732 35.02 550.252 27.16 545.332 16.36H565.312Z" fill="#FFFDFD"/>
<path d="M197.96 23.92C193.76 22 191.48 19.78 191.48 15.64C191.48 11.14 194.84 8.5 200.06 8.5C201.56 8.5 202.76 8.68 203.96 9.22L207.02 19.18H210.5L211.04 9.4C207.74 7.24 203.54 5.98 198.86 5.98C189.08 5.98 182.54 10.6 182.54 18.7C182.54 25.9 186.8 29.92 194.84 33.52L197.72 34.78C202.52 36.88 204.26 39.04 204.26 43.12C204.26 47.8 200.96 50.62 195.02 50.62C192.74 50.62 190.94 50.38 189.14 49.72L185.96 39.28H182.48L182.06 49.6C185.66 51.94 191.12 53.2 196.04 53.2C207.32 53.2 213.38 47.74 213.38 39.76C213.38 32.98 210.08 29.38 201.14 25.36L197.96 23.92ZM280.389 7.18H265.929V9.22L271.569 10L263.349 41.68L254.469 9.94L260.829 9.22V7.18H241.209V9.22L246.849 9.88L237.849 41.56L229.629 9.76L235.269 9.22V7.18H214.989V9.22L219.069 9.64L231.609 52.12H237.069L247.149 18.52L257.229 52.12H262.809L274.929 10L280.389 9.22V7.18ZM304.769 9.22V7.18H283.589V9.22L288.989 9.7C289.169 15.88 289.169 22.06 289.169 28.3V30.94C289.169 37.18 289.169 43.36 288.989 49.42L283.589 49.96V52H304.769V49.96L299.429 49.42C299.309 43.24 299.309 37.06 299.309 30.88V28.3C299.309 22.06 299.309 15.82 299.429 9.7L304.769 9.22ZM344.522 7.18H309.722V9.22L315.122 9.7C315.302 15.88 315.302 22.06 315.302 28.3V30.94C315.302 37.18 315.302 43.36 315.122 49.42L309.722 49.96V52H331.982V49.96L325.562 49.3C325.442 43.18 325.442 36.94 325.442 30.4V30.22H333.722L334.562 36.88H337.562V21.4H334.562L333.662 28.06H325.442C325.442 21.7 325.442 15.52 325.562 9.52H338.222L340.982 19.12H344.402L344.522 7.18ZM382.26 9.52L385.32 20.02H388.8L388.56 7.18H348.96L348.72 20.02H352.26L355.26 9.52H363.54C363.66 15.7 363.66 22 363.66 28.3V30.94C363.66 37.18 363.66 43.36 363.54 49.36L357.48 49.96V52H380.04V49.96L373.92 49.36C373.8 43.24 373.8 37 373.8 30.88V28.3C373.8 21.94 373.8 15.7 373.92 9.52H382.26Z" fill="white"/>
</svg>
