<?xml version="1.0" encoding="UTF-8" standalone="no"?> <!-- Created with Vectornator for iOS (http://vectornator.io/) --><!DOCTYPE svg PUBLIC "-//W3C//DTD SVG 1.1//EN" "http://www.w3.org/Graphics/SVG/1.1/DTD/svg11.dtd">
<svg style="fill-rule:evenodd;clip-rule:evenodd;stroke-linecap:round;stroke-linejoin:round;" xmlns:vectornator="http://vectornator.io" xmlns:xlink="http://www.w3.org/1999/xlink" xmlns="http://www.w3.org/2000/svg" xml:space="preserve" version="1.1" viewBox="0 0 3401.57 1700.79">
<metadata>
<vectornator:setting key="DynamicGuides" value="1"/>
<vectornator:setting key="Units" value="Points"/>
<vectornator:setting key="GuidesVisible" value="1"/>
<vectornator:setting key="RulersVisible" value="1"/>
<vectornator:setting key="SnapToGuides" value="1"/>
<vectornator:setting key="GridSpacing" value="36"/>
</metadata>
<defs>
<path d="M-44+1755L3446+1755L3446-18L-44-18L-44+1755Z" id="Mask"/>
</defs>
<g id="Untitled" vectornator:layerName="Untitled">
<g opacity="1" vectornator:mask="#Mask">
<clipPath id="ClipPath">
<use xlink:href="#Mask" fill="none" overflow="visible"/>
</clipPath>
<g clip-path="url(#ClipPath)">
<g opacity="1">
<path d="M56.4566+136.109L56.3886+136.086L88.2046+100.449L116.399+63.5215L117.183+63.8565C112.36+56.2165+99.4516+32.5455+122.593+29.6005C142.318+27.0925+145.13+40.4235+145.113+48.2835C154.733+44.4955+172.413+39.8465+178.82+53.4385C186.344+69.3825+151.145+72.6595+139.472+73.3025L140.256+73.6345L108.577+109.087L80.2376+146.192L80.1696+146.163C85.3076+154.387+96.9806+176.729+74.4776+179.593C54.7526+182.103+51.8386+168.9+51.7796+161.119C42.2276+164.828+24.6586+169.348+18.2506+155.758C10.9406+140.258+43.9146+136.842+56.4566+136.109" opacity="1" fill="#ffffff"/>
<path d="M518.882+136.109L518.814+136.086L550.63+100.449L578.824+63.5215L579.608+63.8565C574.785+56.2165+561.877+32.5455+585.018+29.6005C604.743+27.0925+607.555+40.4235+607.538+48.2835C617.158+44.4955+634.838+39.8465+641.245+53.4385C648.769+69.3825+613.57+72.6595+601.897+73.3025L602.681+73.6345L571.002+109.087L542.663+146.192L542.595+146.163C547.733+154.387+559.406+176.729+536.903+179.593C517.178+182.103+514.264+168.9+514.205+161.119C504.653+164.828+487.084+169.348+480.676+155.758C473.366+140.258+506.34+136.842+518.882+136.109" opacity="1" fill="#ffffff"/>
<path d="M981.307+136.109L981.239+136.086L1013.05+100.449L1041.25+63.5215L1042.03+63.8565C1037.21+56.2165+1024.3+32.5455+1047.44+29.6005C1067.17+27.0925+1069.98+40.4235+1069.96+48.2835C1079.58+44.4955+1097.26+39.8465+1103.67+53.4385C1111.19+69.3825+1076+72.6595+1064.32+73.3025L1065.11+73.6345L1033.43+109.087L1005.09+146.192L1005.02+146.163C1010.16+154.387+1021.83+176.729+999.328+179.593C979.603+182.103+976.689+168.9+976.63+161.119C967.078+164.828+949.509+169.348+943.101+155.758C935.791+140.258+968.765+136.842+981.307+136.109" opacity="1" fill="#ffffff"/>
<path d="M1443.73+136.109L1443.66+136.086L1475.48+100.449L1503.67+63.5215L1504.46+63.8565C1499.63+56.2165+1486.73+32.5455+1509.87+29.6005C1529.59+27.0925+1532.4+40.4235+1532.39+48.2835C1542.01+44.4955+1559.69+39.8465+1566.09+53.4385C1573.62+69.3825+1538.42+72.6595+1526.75+73.3025L1527.53+73.6345L1495.85+109.087L1467.51+146.192L1467.44+146.163C1472.58+154.387+1484.26+176.729+1461.75+179.593C1442.03+182.103+1439.11+168.9+1439.05+161.119C1429.5+164.828+1411.93+169.348+1405.53+155.758C1398.22+140.258+1431.19+136.842+1443.73+136.109" opacity="1" fill="#ffffff"/>
<path d="M1906.16+136.109L1906.09+136.086L1937.9+100.449L1966.1+63.5215L1966.88+63.8565C1962.06+56.2165+1949.15+32.5455+1972.29+29.6005C1992.02+27.0925+1994.83+40.4235+1994.81+48.2835C2004.43+44.4955+2022.11+39.8465+2028.52+53.4385C2036.04+69.3825+2000.85+72.6595+1989.17+73.3025L1989.96+73.6345L1958.28+109.087L1929.94+146.192L1929.87+146.163C1935.01+154.387+1946.68+176.729+1924.18+179.593C1904.45+182.103+1901.54+168.9+1901.48+161.119C1891.93+164.828+1874.36+169.348+1867.95+155.758C1860.64+140.258+1893.61+136.842+1906.16+136.109" opacity="1" fill="#ffffff"/>
<path d="M2368.58+136.109L2368.51+136.086L2400.33+100.449L2428.52+63.5215L2429.31+63.8565C2424.48+56.2165+2411.58+32.5455+2434.72+29.6005C2454.44+27.0925+2457.25+40.4235+2457.24+48.2835C2466.86+44.4955+2484.54+39.8465+2490.94+53.4385C2498.47+69.3825+2463.27+72.6595+2451.6+73.3025L2452.38+73.6345L2420.7+109.087L2392.36+146.192L2392.29+146.163C2397.43+154.387+2409.11+176.729+2386.6+179.593C2366.88+182.103+2363.96+168.9+2363.9+161.119C2354.35+164.828+2336.78+169.348+2330.38+155.758C2323.07+140.258+2356.04+136.842+2368.58+136.109" opacity="1" fill="#ffffff"/>
<path d="M2831.01+136.109L2830.94+136.086L2862.75+100.449L2890.95+63.5215L2891.73+63.8565C2886.91+56.2165+2874+32.5455+2897.14+29.6005C2916.87+27.0925+2919.68+40.4235+2919.66+48.2835C2929.28+44.4955+2946.96+39.8465+2953.37+53.4385C2960.89+69.3825+2925.69+72.6595+2914.02+73.3025L2914.81+73.6345L2883.13+109.087L2854.79+146.192L2854.72+146.163C2859.86+154.387+2871.53+176.729+2849.03+179.593C2829.3+182.103+2826.39+168.9+2826.33+161.119C2816.78+164.828+2799.21+169.348+2792.8+155.758C2785.49+140.258+2818.46+136.842+2831.01+136.109" opacity="1" fill="#ffffff"/>
<path d="M3293.43+136.109L3293.36+136.086L3325.18+100.449L3353.37+63.5215L3354.16+63.8565C3349.33+56.2165+3336.43+32.5455+3359.57+29.6005C3379.29+27.0925+3382.1+40.4235+3382.09+48.2835C3391.71+44.4955+3409.39+39.8465+3415.8+53.4385C3423.32+69.3825+3388.12+72.6595+3376.45+73.3025L3377.23+73.6345L3345.55+109.087L3317.21+146.192L3317.14+146.163C3322.28+154.387+3333.96+176.729+3311.45+179.593C3291.73+182.103+3288.81+168.9+3288.75+161.119C3279.2+164.828+3261.63+169.348+3255.23+155.758C3247.92+140.258+3280.89+136.842+3293.43+136.109" opacity="1" fill="#ffffff"/>
<path d="M196.057+373.467L195.989+373.443L227.805+337.807L255.999+300.879L256.783+301.214C251.96+293.574+239.052+269.904+262.193+266.957C281.918+264.45+284.73+277.782+284.713+285.642C294.333+281.854+312.013+277.205+318.42+290.795C325.944+306.741+290.745+310.016+279.072+310.66L279.856+310.993L248.177+346.445L219.838+383.55L219.77+383.519C224.908+391.745+236.581+414.086+214.078+416.949C194.353+419.46+191.439+406.257+191.38+398.477C181.828+402.185+164.259+406.704+157.851+393.114C150.541+377.615+183.515+374.199+196.057+373.467" opacity="1" fill="#ffffff"/>
<path d="M658.482+373.467L658.414+373.443L690.23+337.807L718.424+300.879L719.208+301.214C714.385+293.574+701.477+269.904+724.618+266.957C744.343+264.45+747.155+277.782+747.138+285.642C756.758+281.854+774.438+277.205+780.845+290.795C788.369+306.741+753.171+310.016+741.497+310.66L742.281+310.993L710.602+346.445L682.263+383.55L682.195+383.519C687.333+391.745+699.006+414.086+676.503+416.949C656.778+419.46+653.864+406.257+653.805+398.477C644.253+402.185+626.684+406.704+620.276+393.114C612.966+377.615+645.94+374.199+658.482+373.467" opacity="1" fill="#ffffff"/>
<path d="M1120.91+373.467L1120.84+373.443L1152.65+337.807L1180.85+300.879L1181.63+301.214C1176.81+293.574+1163.9+269.904+1187.04+266.957C1206.77+264.45+1209.58+277.782+1209.56+285.642C1219.18+281.854+1236.86+277.205+1243.27+290.795C1250.79+306.741+1215.59+310.016+1203.92+310.66L1204.71+310.993L1173.03+346.445L1144.69+383.55L1144.62+383.519C1149.76+391.745+1161.43+414.086+1138.93+416.949C1119.2+419.46+1116.29+406.257+1116.23+398.477C1106.68+402.185+1089.11+406.704+1082.7+393.114C1075.39+377.615+1108.36+374.199+1120.91+373.467" opacity="1" fill="#ffffff"/>
<path d="M1583.33+373.467L1583.26+373.443L1615.08+337.807L1643.27+300.879L1644.06+301.214C1639.23+293.574+1626.33+269.904+1649.47+266.957C1669.19+264.45+1672+277.782+1671.99+285.642C1681.61+281.854+1699.29+277.205+1705.69+290.795C1713.22+306.741+1678.02+310.016+1666.35+310.66L1667.13+310.993L1635.45+346.445L1607.11+383.55L1607.04+383.519C1612.18+391.745+1623.86+414.086+1601.35+416.949C1581.63+419.46+1578.71+406.257+1578.65+398.477C1569.1+402.185+1551.53+406.704+1545.13+393.114C1537.82+377.615+1570.79+374.199+1583.33+373.467" opacity="1" fill="#ffffff"/>
<path d="M2045.76+373.467L2045.69+373.443L2077.5+337.807L2105.7+300.879L2106.48+301.214C2101.66+293.574+2088.75+269.904+2111.89+266.957C2131.62+264.45+2134.43+277.782+2134.41+285.642C2144.03+281.854+2161.71+277.205+2168.12+290.795C2175.64+306.741+2140.44+310.016+2128.77+310.66L2129.56+310.993L2097.88+346.445L2069.54+383.55L2069.47+383.519C2074.61+391.745+2086.28+414.086+2063.78+416.949C2044.05+419.46+2041.14+406.257+2041.08+398.477C2031.53+402.185+2013.96+406.704+2007.55+393.114C2000.24+377.615+2033.21+374.199+2045.76+373.467" opacity="1" fill="#ffffff"/>
<path d="M2508.18+373.467L2508.11+373.443L2539.93+337.807L2568.12+300.879L2568.91+301.214C2564.08+293.574+2551.18+269.904+2574.32+266.957C2594.04+264.45+2596.85+277.782+2596.84+285.642C2606.46+281.854+2624.14+277.205+2630.54+290.795C2638.07+306.741+2602.87+310.016+2591.2+310.66L2591.98+310.993L2560.3+346.445L2531.96+383.55L2531.89+383.519C2537.03+391.745+2548.71+414.086+2526.2+416.949C2506.48+419.46+2503.56+406.257+2503.5+398.477C2493.95+402.185+2476.38+406.704+2469.98+393.114C2462.67+377.615+2495.64+374.199+2508.18+373.467" opacity="1" fill="#ffffff"/>
<path d="M2970.61+373.467L2970.54+373.443L3002.35+337.807L3030.55+300.879L3031.33+301.214C3026.51+293.574+3013.6+269.904+3036.74+266.957C3056.47+264.45+3059.28+277.782+3059.26+285.642C3068.88+281.854+3086.56+277.205+3092.97+290.795C3100.49+306.741+3065.29+310.016+3053.62+310.66L3054.41+310.993L3022.73+346.445L2994.39+383.55L2994.32+383.519C2999.46+391.745+3011.13+414.086+2988.63+416.949C2968.9+419.46+2965.99+406.257+2965.93+398.477C2956.38+402.185+2938.81+406.704+2932.4+393.114C2925.09+377.615+2958.06+374.199+2970.61+373.467" opacity="1" fill="#ffffff"/>
<path d="M3433.03+373.467L3432.96+373.443L3464.78+337.807L3492.97+300.879L3493.76+301.214C3488.93+293.574+3476.03+269.904+3499.17+266.957C3518.89+264.45+3521.7+277.782+3521.69+285.642C3531.31+281.854+3548.99+277.205+3555.39+290.795C3562.92+306.741+3527.72+310.016+3516.05+310.66L3516.83+310.993L3485.15+346.445L3456.81+383.55L3456.74+383.519C3461.88+391.745+3473.56+414.086+3451.05+416.949C3431.33+419.46+3428.41+406.257+3428.35+398.477C3418.8+402.185+3401.23+406.704+3394.83+393.114C3387.52+377.615+3420.49+374.199+3433.03+373.467" opacity="1" fill="#ffffff"/>
<path d="M56.4566+585.838L56.3886+585.814L88.2046+550.178L116.399+513.251L117.183+513.586C112.36+505.947+99.4516+482.275+122.593+479.329C142.318+476.822+145.13+490.153+145.113+498.013C154.733+494.225+172.413+489.578+178.82+503.168C186.344+519.112+151.145+522.389+139.472+523.032L140.256+523.364L108.577+558.816L80.2376+595.921L80.1696+595.892C85.3076+604.116+96.9806+626.458+74.4776+629.322C54.7526+631.831+51.8386+618.629+51.7796+610.848C42.2276+614.557+24.6586+619.077+18.2506+605.486C10.9406+589.987+43.9146+586.571+56.4566+585.838" opacity="1" fill="#ffffff"/>
<path d="M518.882+585.838L518.814+585.814L550.63+550.178L578.824+513.251L579.608+513.586C574.785+505.947+561.877+482.275+585.018+479.329C604.743+476.822+607.555+490.153+607.538+498.013C617.158+494.225+634.838+489.578+641.245+503.168C648.769+519.112+613.57+522.389+601.897+523.032L602.681+523.364L571.002+558.816L542.663+595.921L542.595+595.892C547.733+604.116+559.406+626.458+536.903+629.322C517.178+631.831+514.264+618.629+514.205+610.848C504.653+614.557+487.084+619.077+480.676+605.486C473.366+589.987+506.34+586.571+518.882+585.838" opacity="1" fill="#ffffff"/>
<path d="M981.307+585.838L981.239+585.814L1013.05+550.178L1041.25+513.251L1042.03+513.586C1037.21+505.947+1024.3+482.275+1047.44+479.329C1067.17+476.822+1069.98+490.153+1069.96+498.013C1079.58+494.225+1097.26+489.578+1103.67+503.168C1111.19+519.112+1076+522.389+1064.32+523.032L1065.11+523.364L1033.43+558.816L1005.09+595.921L1005.02+595.892C1010.16+604.116+1021.83+626.458+999.328+629.322C979.603+631.831+976.689+618.629+976.63+610.848C967.078+614.557+949.509+619.077+943.101+605.486C935.791+589.987+968.765+586.571+981.307+585.838" opacity="1" fill="#ffffff"/>
<path d="M1443.73+585.838L1443.66+585.814L1475.48+550.178L1503.67+513.251L1504.46+513.586C1499.63+505.947+1486.73+482.275+1509.87+479.329C1529.59+476.822+1532.4+490.153+1532.39+498.013C1542.01+494.225+1559.69+489.578+1566.09+503.168C1573.62+519.112+1538.42+522.389+1526.75+523.032L1527.53+523.364L1495.85+558.816L1467.51+595.921L1467.44+595.892C1472.58+604.116+1484.26+626.458+1461.75+629.322C1442.03+631.831+1439.11+618.629+1439.05+610.848C1429.5+614.557+1411.93+619.077+1405.53+605.486C1398.22+589.987+1431.19+586.571+1443.73+585.838" opacity="1" fill="#ffffff"/>
<path d="M1906.16+585.838L1906.09+585.814L1937.9+550.178L1966.1+513.251L1966.88+513.586C1962.06+505.947+1949.15+482.275+1972.29+479.329C1992.02+476.822+1994.83+490.153+1994.81+498.013C2004.43+494.225+2022.11+489.578+2028.52+503.168C2036.04+519.112+2000.85+522.389+1989.17+523.032L1989.96+523.364L1958.28+558.816L1929.94+595.921L1929.87+595.892C1935.01+604.116+1946.68+626.458+1924.18+629.322C1904.45+631.831+1901.54+618.629+1901.48+610.848C1891.93+614.557+1874.36+619.077+1867.95+605.486C1860.64+589.987+1893.61+586.571+1906.16+585.838" opacity="1" fill="#ffffff"/>
<path d="M2368.58+585.838L2368.51+585.814L2400.33+550.178L2428.52+513.251L2429.31+513.586C2424.48+505.947+2411.58+482.275+2434.72+479.329C2454.44+476.822+2457.25+490.153+2457.24+498.013C2466.86+494.225+2484.54+489.578+2490.94+503.168C2498.47+519.112+2463.27+522.389+2451.6+523.032L2452.38+523.364L2420.7+558.816L2392.36+595.921L2392.29+595.892C2397.43+604.116+2409.11+626.458+2386.6+629.322C2366.88+631.831+2363.96+618.629+2363.9+610.848C2354.35+614.557+2336.78+619.077+2330.38+605.486C2323.07+589.987+2356.04+586.571+2368.58+585.838" opacity="1" fill="#ffffff"/>
<path d="M2831.01+585.838L2830.94+585.814L2862.75+550.178L2890.95+513.251L2891.73+513.586C2886.91+505.947+2874+482.275+2897.14+479.329C2916.87+476.822+2919.68+490.153+2919.66+498.013C2929.28+494.225+2946.96+489.578+2953.37+503.168C2960.89+519.112+2925.69+522.389+2914.02+523.032L2914.81+523.364L2883.13+558.816L2854.79+595.921L2854.72+595.892C2859.86+604.116+2871.53+626.458+2849.03+629.322C2829.3+631.831+2826.39+618.629+2826.33+610.848C2816.78+614.557+2799.21+619.077+2792.8+605.486C2785.49+589.987+2818.46+586.571+2831.01+585.838" opacity="1" fill="#ffffff"/>
<path d="M3293.43+585.838L3293.36+585.814L3325.18+550.178L3353.37+513.251L3354.16+513.586C3349.33+505.947+3336.43+482.275+3359.57+479.329C3379.29+476.822+3382.1+490.153+3382.09+498.013C3391.71+494.225+3409.39+489.578+3415.8+503.168C3423.32+519.112+3388.12+522.389+3376.45+523.032L3377.23+523.364L3345.55+558.816L3317.21+595.921L3317.14+595.892C3322.28+604.116+3333.96+626.458+3311.45+629.322C3291.73+631.831+3288.81+618.629+3288.75+610.848C3279.2+614.557+3261.63+619.077+3255.23+605.486C3247.92+589.987+3280.89+586.571+3293.43+585.838" opacity="1" fill="#ffffff"/>
<path d="M196.057+823.195L195.989+823.172L227.805+787.537L255.999+750.608L256.783+750.945C251.96+743.304+239.052+719.633+262.193+716.687C281.918+714.179+284.73+727.512+284.713+735.372C294.333+731.584+312.013+726.935+318.42+740.527C325.944+756.469+290.745+759.746+279.072+760.389L279.856+760.722L248.177+796.175L219.838+833.28L219.77+833.251C224.908+841.473+236.581+863.815+214.078+866.681C194.353+869.19+191.439+855.985+191.38+848.206C181.828+851.914+164.259+856.436+157.851+842.846C150.541+827.344+183.515+823.927+196.057+823.195" opacity="1" fill="#ffffff"/>
<path d="M658.482+823.195L658.414+823.172L690.23+787.537L718.424+750.608L719.208+750.945C714.385+743.304+701.477+719.633+724.618+716.687C744.343+714.179+747.155+727.512+747.138+735.372C756.758+731.584+774.438+726.935+780.845+740.527C788.369+756.469+753.171+759.746+741.497+760.389L742.281+760.722L710.602+796.175L682.263+833.28L682.195+833.251C687.333+841.473+699.006+863.815+676.503+866.681C656.778+869.19+653.864+855.985+653.805+848.206C644.253+851.914+626.684+856.436+620.276+842.846C612.966+827.344+645.94+823.927+658.482+823.195" opacity="1" fill="#ffffff"/>
<path d="M1120.91+823.195L1120.84+823.172L1152.65+787.537L1180.85+750.608L1181.63+750.945C1176.81+743.304+1163.9+719.633+1187.04+716.687C1206.77+714.179+1209.58+727.512+1209.56+735.372C1219.18+731.584+1236.86+726.935+1243.27+740.527C1250.79+756.469+1215.59+759.746+1203.92+760.389L1204.71+760.722L1173.03+796.175L1144.69+833.28L1144.62+833.251C1149.76+841.473+1161.43+863.815+1138.93+866.681C1119.2+869.19+1116.29+855.985+1116.23+848.206C1106.68+851.914+1089.11+856.436+1082.7+842.846C1075.39+827.344+1108.36+823.927+1120.91+823.195" opacity="1" fill="#ffffff"/>
<path d="M1583.33+823.195L1583.26+823.172L1615.08+787.537L1643.27+750.608L1644.06+750.945C1639.23+743.304+1626.33+719.633+1649.47+716.687C1669.19+714.179+1672+727.512+1671.99+735.372C1681.61+731.584+1699.29+726.935+1705.69+740.527C1713.22+756.469+1678.02+759.746+1666.35+760.389L1667.13+760.722L1635.45+796.175L1607.11+833.28L1607.04+833.251C1612.18+841.473+1623.86+863.815+1601.35+866.681C1581.63+869.19+1578.71+855.985+1578.65+848.206C1569.1+851.914+1551.53+856.436+1545.13+842.846C1537.82+827.344+1570.79+823.927+1583.33+823.195" opacity="1" fill="#ffffff"/>
<path d="M2045.76+823.195L2045.69+823.172L2077.5+787.537L2105.7+750.608L2106.48+750.945C2101.66+743.304+2088.75+719.633+2111.89+716.687C2131.62+714.179+2134.43+727.512+2134.41+735.372C2144.03+731.584+2161.71+726.935+2168.12+740.527C2175.64+756.469+2140.44+759.746+2128.77+760.389L2129.56+760.722L2097.88+796.175L2069.54+833.28L2069.47+833.251C2074.61+841.473+2086.28+863.815+2063.78+866.681C2044.05+869.19+2041.14+855.985+2041.08+848.206C2031.53+851.914+2013.96+856.436+2007.55+842.846C2000.24+827.344+2033.21+823.927+2045.76+823.195" opacity="1" fill="#ffffff"/>
<path d="M2508.18+823.195L2508.11+823.172L2539.93+787.537L2568.12+750.608L2568.91+750.945C2564.08+743.304+2551.18+719.633+2574.32+716.687C2594.04+714.179+2596.85+727.512+2596.84+735.372C2606.46+731.584+2624.14+726.935+2630.54+740.527C2638.07+756.469+2602.87+759.746+2591.2+760.389L2591.98+760.722L2560.3+796.175L2531.96+833.28L2531.89+833.251C2537.03+841.473+2548.71+863.815+2526.2+866.681C2506.48+869.19+2503.56+855.985+2503.5+848.206C2493.95+851.914+2476.38+856.436+2469.98+842.846C2462.67+827.344+2495.64+823.927+2508.18+823.195" opacity="1" fill="#ffffff"/>
<path d="M2970.61+823.195L2970.54+823.172L3002.35+787.537L3030.55+750.608L3031.33+750.945C3026.51+743.304+3013.6+719.633+3036.74+716.687C3056.47+714.179+3059.28+727.512+3059.26+735.372C3068.88+731.584+3086.56+726.935+3092.97+740.527C3100.49+756.469+3065.29+759.746+3053.62+760.389L3054.41+760.722L3022.73+796.175L2994.39+833.28L2994.32+833.251C2999.46+841.473+3011.13+863.815+2988.63+866.681C2968.9+869.19+2965.99+855.985+2965.93+848.206C2956.38+851.914+2938.81+856.436+2932.4+842.846C2925.09+827.344+2958.06+823.927+2970.61+823.195" opacity="1" fill="#ffffff"/>
<path d="M3433.03+823.195L3432.96+823.172L3464.78+787.537L3492.97+750.608L3493.76+750.945C3488.93+743.304+3476.03+719.633+3499.17+716.687C3518.89+714.179+3521.7+727.512+3521.69+735.372C3531.31+731.584+3548.99+726.935+3555.39+740.527C3562.92+756.469+3527.72+759.746+3516.05+760.389L3516.83+760.722L3485.15+796.175L3456.81+833.28L3456.74+833.251C3461.88+841.473+3473.56+863.815+3451.05+866.681C3431.33+869.19+3428.41+855.985+3428.35+848.206C3418.8+851.914+3401.23+856.436+3394.83+842.846C3387.52+827.344+3420.49+823.927+3433.03+823.195" opacity="1" fill="#ffffff"/>
<path d="M56.4566+1035.57L56.3886+1035.55L88.2046+999.91L116.399+962.981L117.183+963.315C112.36+955.677+99.4516+932.005+122.593+929.058C142.318+926.552+145.13+939.885+145.113+947.745C154.733+943.955+172.413+939.306+178.82+952.896C186.344+968.842+151.145+972.119+139.472+972.762L140.256+973.095L108.577+1008.55L80.2376+1045.65L80.1696+1045.62C85.3076+1053.85+96.9806+1076.19+74.4776+1079.05C54.7526+1081.56+51.8386+1068.36+51.7796+1060.58C42.2276+1064.29+24.6586+1068.81+18.2506+1055.22C10.9406+1039.72+43.9146+1036.3+56.4566+1035.57" opacity="1" fill="#ffffff"/>
<path d="M518.882+1035.57L518.814+1035.55L550.63+999.91L578.824+962.981L579.608+963.315C574.785+955.677+561.877+932.005+585.018+929.058C604.743+926.552+607.555+939.885+607.538+947.745C617.158+943.955+634.838+939.306+641.245+952.896C648.769+968.842+613.57+972.119+601.897+972.762L602.681+973.095L571.002+1008.55L542.663+1045.65L542.595+1045.62C547.733+1053.85+559.406+1076.19+536.903+1079.05C517.178+1081.56+514.264+1068.36+514.205+1060.58C504.653+1064.29+487.084+1068.81+480.676+1055.22C473.366+1039.72+506.34+1036.3+518.882+1035.57" opacity="1" fill="#ffffff"/>
<path d="M981.307+1035.57L981.239+1035.55L1013.05+999.91L1041.25+962.981L1042.03+963.315C1037.21+955.677+1024.3+932.005+1047.44+929.058C1067.17+926.552+1069.98+939.885+1069.96+947.745C1079.58+943.955+1097.26+939.306+1103.67+952.896C1111.19+968.842+1076+972.119+1064.32+972.762L1065.11+973.095L1033.43+1008.55L1005.09+1045.65L1005.02+1045.62C1010.16+1053.85+1021.83+1076.19+999.328+1079.05C979.603+1081.56+976.689+1068.36+976.63+1060.58C967.078+1064.29+949.509+1068.81+943.101+1055.22C935.791+1039.72+968.765+1036.3+981.307+1035.57" opacity="1" fill="#ffffff"/>
<path d="M1443.73+1035.57L1443.66+1035.55L1475.48+999.91L1503.67+962.981L1504.46+963.315C1499.63+955.677+1486.73+932.005+1509.87+929.058C1529.59+926.552+1532.4+939.885+1532.39+947.745C1542.01+943.955+1559.69+939.306+1566.09+952.896C1573.62+968.842+1538.42+972.119+1526.75+972.762L1527.53+973.095L1495.85+1008.55L1467.51+1045.65L1467.44+1045.62C1472.58+1053.85+1484.26+1076.19+1461.75+1079.05C1442.03+1081.56+1439.11+1068.36+1439.05+1060.58C1429.5+1064.29+1411.93+1068.81+1405.53+1055.22C1398.22+1039.72+1431.19+1036.3+1443.73+1035.57" opacity="1" fill="#ffffff"/>
<path d="M1906.16+1035.57L1906.09+1035.55L1937.9+999.91L1966.1+962.981L1966.88+963.315C1962.06+955.677+1949.15+932.005+1972.29+929.058C1992.02+926.552+1994.83+939.885+1994.81+947.745C2004.43+943.955+2022.11+939.306+2028.52+952.896C2036.04+968.842+2000.85+972.119+1989.17+972.762L1989.96+973.095L1958.28+1008.55L1929.94+1045.65L1929.87+1045.62C1935.01+1053.85+1946.68+1076.19+1924.18+1079.05C1904.45+1081.56+1901.54+1068.36+1901.48+1060.58C1891.93+1064.29+1874.36+1068.81+1867.95+1055.22C1860.64+1039.72+1893.61+1036.3+1906.16+1035.57" opacity="1" fill="#ffffff"/>
<path d="M2368.58+1035.57L2368.51+1035.55L2400.33+999.91L2428.52+962.981L2429.31+963.315C2424.48+955.677+2411.58+932.005+2434.72+929.058C2454.44+926.552+2457.25+939.885+2457.24+947.745C2466.86+943.955+2484.54+939.306+2490.94+952.896C2498.47+968.842+2463.27+972.119+2451.6+972.762L2452.38+973.095L2420.7+1008.55L2392.36+1045.65L2392.29+1045.62C2397.43+1053.85+2409.11+1076.19+2386.6+1079.05C2366.88+1081.56+2363.96+1068.36+2363.9+1060.58C2354.35+1064.29+2336.78+1068.81+2330.38+1055.22C2323.07+1039.72+2356.04+1036.3+2368.58+1035.57" opacity="1" fill="#ffffff"/>
<path d="M2831.01+1035.57L2830.94+1035.55L2862.75+999.91L2890.95+962.981L2891.73+963.315C2886.91+955.677+2874+932.005+2897.14+929.058C2916.87+926.552+2919.68+939.885+2919.66+947.745C2929.28+943.955+2946.96+939.306+2953.37+952.896C2960.89+968.842+2925.69+972.119+2914.02+972.762L2914.81+973.095L2883.13+1008.55L2854.79+1045.65L2854.72+1045.62C2859.86+1053.85+2871.53+1076.19+2849.03+1079.05C2829.3+1081.56+2826.39+1068.36+2826.33+1060.58C2816.78+1064.29+2799.21+1068.81+2792.8+1055.22C2785.49+1039.72+2818.46+1036.3+2831.01+1035.57" opacity="1" fill="#ffffff"/>
<path d="M3293.43+1035.57L3293.36+1035.55L3325.18+999.91L3353.37+962.981L3354.16+963.315C3349.33+955.677+3336.43+932.005+3359.57+929.058C3379.29+926.552+3382.1+939.885+3382.09+947.745C3391.71+943.955+3409.39+939.306+3415.8+952.896C3423.32+968.842+3388.12+972.119+3376.45+972.762L3377.23+973.095L3345.55+1008.55L3317.21+1045.65L3317.14+1045.62C3322.28+1053.85+3333.96+1076.19+3311.45+1079.05C3291.73+1081.56+3288.81+1068.36+3288.75+1060.58C3279.2+1064.29+3261.63+1068.81+3255.23+1055.22C3247.92+1039.72+3280.89+1036.3+3293.43+1035.57" opacity="1" fill="#ffffff"/>
<path d="M196.057+1272.93L195.989+1272.9L227.805+1237.27L255.999+1200.34L256.783+1200.67C251.96+1193.03+239.052+1169.36+262.193+1166.42C281.918+1163.91+284.73+1177.24+284.713+1185.1C294.333+1181.31+312.013+1176.66+318.42+1190.25C325.944+1206.2+290.745+1209.48+279.072+1210.12L279.856+1210.45L248.177+1245.9L219.838+1283.01L219.77+1282.98C224.908+1291.2+236.581+1313.55+214.078+1316.41C194.353+1318.92+191.439+1305.72+191.38+1297.93C181.828+1301.65+164.259+1306.16+157.851+1292.57C150.541+1277.08+183.515+1273.66+196.057+1272.93" opacity="1" fill="#ffffff"/>
<path d="M658.482+1272.93L658.414+1272.9L690.23+1237.27L718.424+1200.34L719.208+1200.67C714.385+1193.03+701.477+1169.36+724.618+1166.42C744.343+1163.91+747.155+1177.24+747.138+1185.1C756.758+1181.31+774.438+1176.66+780.845+1190.25C788.369+1206.2+753.171+1209.48+741.497+1210.12L742.281+1210.45L710.602+1245.9L682.263+1283.01L682.195+1282.98C687.333+1291.2+699.006+1313.55+676.503+1316.41C656.778+1318.92+653.864+1305.72+653.805+1297.93C644.253+1301.65+626.684+1306.16+620.276+1292.57C612.966+1277.08+645.94+1273.66+658.482+1272.93" opacity="1" fill="#ffffff"/>
<path d="M1120.91+1272.93L1120.84+1272.9L1152.65+1237.27L1180.85+1200.34L1181.63+1200.67C1176.81+1193.03+1163.9+1169.36+1187.04+1166.42C1206.77+1163.91+1209.58+1177.24+1209.56+1185.1C1219.18+1181.31+1236.86+1176.66+1243.27+1190.25C1250.79+1206.2+1215.59+1209.48+1203.92+1210.12L1204.71+1210.45L1173.03+1245.9L1144.69+1283.01L1144.62+1282.98C1149.76+1291.2+1161.43+1313.55+1138.93+1316.41C1119.2+1318.92+1116.29+1305.72+1116.23+1297.93C1106.68+1301.65+1089.11+1306.16+1082.7+1292.57C1075.39+1277.08+1108.36+1273.66+1120.91+1272.93" opacity="1" fill="#ffffff"/>
<path d="M1583.33+1272.93L1583.26+1272.9L1615.08+1237.27L1643.27+1200.34L1644.06+1200.67C1639.23+1193.03+1626.33+1169.36+1649.47+1166.42C1669.19+1163.91+1672+1177.24+1671.99+1185.1C1681.61+1181.31+1699.29+1176.66+1705.69+1190.25C1713.22+1206.2+1678.02+1209.48+1666.35+1210.12L1667.13+1210.45L1635.45+1245.9L1607.11+1283.01L1607.04+1282.98C1612.18+1291.2+1623.86+1313.55+1601.35+1316.41C1581.63+1318.92+1578.71+1305.72+1578.65+1297.93C1569.1+1301.65+1551.53+1306.16+1545.13+1292.57C1537.82+1277.08+1570.79+1273.66+1583.33+1272.93" opacity="1" fill="#ffffff"/>
<path d="M2045.76+1272.93L2045.69+1272.9L2077.5+1237.27L2105.7+1200.34L2106.48+1200.67C2101.66+1193.03+2088.75+1169.36+2111.89+1166.42C2131.62+1163.91+2134.43+1177.24+2134.41+1185.1C2144.03+1181.31+2161.71+1176.66+2168.12+1190.25C2175.64+1206.2+2140.44+1209.48+2128.77+1210.12L2129.56+1210.45L2097.88+1245.9L2069.54+1283.01L2069.47+1282.98C2074.61+1291.2+2086.28+1313.55+2063.78+1316.41C2044.05+1318.92+2041.14+1305.72+2041.08+1297.93C2031.53+1301.65+2013.96+1306.16+2007.55+1292.57C2000.24+1277.08+2033.21+1273.66+2045.76+1272.93" opacity="1" fill="#ffffff"/>
<path d="M2508.18+1272.93L2508.11+1272.9L2539.93+1237.27L2568.12+1200.34L2568.91+1200.67C2564.08+1193.03+2551.18+1169.36+2574.32+1166.42C2594.04+1163.91+2596.85+1177.24+2596.84+1185.1C2606.46+1181.31+2624.14+1176.66+2630.54+1190.25C2638.07+1206.2+2602.87+1209.48+2591.2+1210.12L2591.98+1210.45L2560.3+1245.9L2531.96+1283.01L2531.89+1282.98C2537.03+1291.2+2548.71+1313.55+2526.2+1316.41C2506.48+1318.92+2503.56+1305.72+2503.5+1297.93C2493.95+1301.65+2476.38+1306.16+2469.98+1292.57C2462.67+1277.08+2495.64+1273.66+2508.18+1272.93" opacity="1" fill="#ffffff"/>
<path d="M2970.61+1272.93L2970.54+1272.9L3002.35+1237.27L3030.55+1200.34L3031.33+1200.67C3026.51+1193.03+3013.6+1169.36+3036.74+1166.42C3056.47+1163.91+3059.28+1177.24+3059.26+1185.1C3068.88+1181.31+3086.56+1176.66+3092.97+1190.25C3100.49+1206.2+3065.29+1209.48+3053.62+1210.12L3054.41+1210.45L3022.73+1245.9L2994.39+1283.01L2994.32+1282.98C2999.46+1291.2+3011.13+1313.55+2988.63+1316.41C2968.9+1318.92+2965.99+1305.72+2965.93+1297.93C2956.38+1301.65+2938.81+1306.16+2932.4+1292.57C2925.09+1277.08+2958.06+1273.66+2970.61+1272.93" opacity="1" fill="#ffffff"/>
<path d="M3433.03+1272.93L3432.96+1272.9L3464.78+1237.27L3492.97+1200.34L3493.76+1200.67C3488.93+1193.03+3476.03+1169.36+3499.17+1166.42C3518.89+1163.91+3521.7+1177.24+3521.69+1185.1C3531.31+1181.31+3548.99+1176.66+3555.39+1190.25C3562.92+1206.2+3527.72+1209.48+3516.05+1210.12L3516.83+1210.45L3485.15+1245.9L3456.81+1283.01L3456.74+1282.98C3461.88+1291.2+3473.56+1313.55+3451.05+1316.41C3431.33+1318.92+3428.41+1305.72+3428.35+1297.93C3418.8+1301.65+3401.23+1306.16+3394.83+1292.57C3387.52+1277.08+3420.49+1273.66+3433.03+1272.93" opacity="1" fill="#ffffff"/>
<path d="M56.4566+1485.3L56.3886+1485.27L88.2046+1449.64L116.399+1412.71L117.183+1413.05C112.36+1405.4+99.4516+1381.74+122.593+1378.79C142.318+1376.28+145.13+1389.61+145.113+1397.47C154.733+1393.68+172.413+1389.04+178.82+1402.63C186.344+1418.57+151.145+1421.85+139.472+1422.49L140.256+1422.82L108.577+1458.28L80.2376+1495.38L80.1696+1495.35C85.3076+1503.58+96.9806+1525.92+74.4776+1528.78C54.7526+1531.29+51.8386+1518.09+51.7796+1510.31C42.2276+1514.02+24.6586+1518.54+18.2506+1504.95C10.9406+1489.45+43.9146+1486.03+56.4566+1485.3" opacity="1" fill="#ffffff"/>
<path d="M518.882+1485.3L518.814+1485.27L550.63+1449.64L578.824+1412.71L579.608+1413.05C574.785+1405.4+561.877+1381.74+585.018+1378.79C604.743+1376.28+607.555+1389.61+607.538+1397.47C617.158+1393.68+634.838+1389.04+641.245+1402.63C648.769+1418.57+613.57+1421.85+601.897+1422.49L602.681+1422.82L571.002+1458.28L542.663+1495.38L542.595+1495.35C547.733+1503.58+559.406+1525.92+536.903+1528.78C517.178+1531.29+514.264+1518.09+514.205+1510.31C504.653+1514.02+487.084+1518.54+480.676+1504.95C473.366+1489.45+506.34+1486.03+518.882+1485.3" opacity="1" fill="#ffffff"/>
<path d="M981.307+1485.3L981.239+1485.27L1013.05+1449.64L1041.25+1412.71L1042.03+1413.05C1037.21+1405.4+1024.3+1381.74+1047.44+1378.79C1067.17+1376.28+1069.98+1389.61+1069.96+1397.47C1079.58+1393.68+1097.26+1389.04+1103.67+1402.63C1111.19+1418.57+1076+1421.85+1064.32+1422.49L1065.11+1422.82L1033.43+1458.28L1005.09+1495.38L1005.02+1495.35C1010.16+1503.58+1021.83+1525.92+999.328+1528.78C979.603+1531.29+976.689+1518.09+976.63+1510.31C967.078+1514.02+949.509+1518.54+943.101+1504.95C935.791+1489.45+968.765+1486.03+981.307+1485.3" opacity="1" fill="#ffffff"/>
<path d="M1443.73+1485.3L1443.66+1485.27L1475.48+1449.64L1503.67+1412.71L1504.46+1413.05C1499.63+1405.4+1486.73+1381.74+1509.87+1378.79C1529.59+1376.28+1532.4+1389.61+1532.39+1397.47C1542.01+1393.68+1559.69+1389.04+1566.09+1402.63C1573.62+1418.57+1538.42+1421.85+1526.75+1422.49L1527.53+1422.82L1495.85+1458.28L1467.51+1495.38L1467.44+1495.35C1472.58+1503.58+1484.26+1525.92+1461.75+1528.78C1442.03+1531.29+1439.11+1518.09+1439.05+1510.31C1429.5+1514.02+1411.93+1518.54+1405.53+1504.95C1398.22+1489.45+1431.19+1486.03+1443.73+1485.3" opacity="1" fill="#ffffff"/>
<path d="M1906.16+1485.3L1906.09+1485.27L1937.9+1449.64L1966.1+1412.71L1966.88+1413.05C1962.06+1405.4+1949.15+1381.74+1972.29+1378.79C1992.02+1376.28+1994.83+1389.61+1994.81+1397.47C2004.43+1393.68+2022.11+1389.04+2028.52+1402.63C2036.04+1418.57+2000.85+1421.85+1989.17+1422.49L1989.96+1422.82L1958.28+1458.28L1929.94+1495.38L1929.87+1495.35C1935.01+1503.58+1946.68+1525.92+1924.18+1528.78C1904.45+1531.29+1901.54+1518.09+1901.48+1510.31C1891.93+1514.02+1874.36+1518.54+1867.95+1504.95C1860.64+1489.45+1893.61+1486.03+1906.16+1485.3" opacity="1" fill="#ffffff"/>
<path d="M2368.58+1485.3L2368.51+1485.27L2400.33+1449.64L2428.52+1412.71L2429.31+1413.05C2424.48+1405.4+2411.58+1381.74+2434.72+1378.79C2454.44+1376.28+2457.25+1389.61+2457.24+1397.47C2466.86+1393.68+2484.54+1389.04+2490.94+1402.63C2498.47+1418.57+2463.27+1421.85+2451.6+1422.49L2452.38+1422.82L2420.7+1458.28L2392.36+1495.38L2392.29+1495.35C2397.43+1503.58+2409.11+1525.92+2386.6+1528.78C2366.88+1531.29+2363.96+1518.09+2363.9+1510.31C2354.35+1514.02+2336.78+1518.54+2330.38+1504.95C2323.07+1489.45+2356.04+1486.03+2368.58+1485.3" opacity="1" fill="#ffffff"/>
<path d="M2831.01+1485.3L2830.94+1485.27L2862.75+1449.64L2890.95+1412.71L2891.73+1413.05C2886.91+1405.4+2874+1381.74+2897.14+1378.79C2916.87+1376.28+2919.68+1389.61+2919.66+1397.47C2929.28+1393.68+2946.96+1389.04+2953.37+1402.63C2960.89+1418.57+2925.69+1421.85+2914.02+1422.49L2914.81+1422.82L2883.13+1458.28L2854.79+1495.38L2854.72+1495.35C2859.86+1503.58+2871.53+1525.92+2849.03+1528.78C2829.3+1531.29+2826.39+1518.09+2826.33+1510.31C2816.78+1514.02+2799.21+1518.54+2792.8+1504.95C2785.49+1489.45+2818.46+1486.03+2831.01+1485.3" opacity="1" fill="#ffffff"/>
<path d="M3293.43+1485.3L3293.36+1485.27L3325.18+1449.64L3353.37+1412.71L3354.16+1413.05C3349.33+1405.4+3336.43+1381.74+3359.57+1378.79C3379.29+1376.28+3382.1+1389.61+3382.09+1397.47C3391.71+1393.68+3409.39+1389.04+3415.8+1402.63C3423.32+1418.57+3388.12+1421.85+3376.45+1422.49L3377.23+1422.82L3345.55+1458.28L3317.21+1495.38L3317.14+1495.35C3322.28+1503.58+3333.96+1525.92+3311.45+1528.78C3291.73+1531.29+3288.81+1518.09+3288.75+1510.31C3279.2+1514.02+3261.63+1518.54+3255.23+1504.95C3247.92+1489.45+3280.89+1486.03+3293.43+1485.3" opacity="1" fill="#ffffff"/>
<path d="M196.057+1722.65L195.989+1722.63L227.805+1687L255.999+1650.07L256.783+1650.4C251.96+1642.76+239.052+1619.09+262.193+1616.15C281.918+1613.64+284.73+1626.97+284.713+1634.83C294.333+1631.04+312.013+1626.39+318.42+1639.99C325.944+1655.93+290.745+1659.21+279.072+1659.85L279.856+1660.18L248.177+1695.63L219.838+1732.74L219.77+1732.71C224.908+1740.93+236.581+1763.27+214.078+1766.14C194.353+1768.65+191.439+1755.44+191.38+1747.67C181.828+1751.37+164.259+1755.89+157.851+1742.3C150.541+1726.8+183.515+1723.39+196.057+1722.65" opacity="1" fill="#ffffff"/>
<path d="M658.482+1722.65L658.414+1722.63L690.23+1687L718.424+1650.07L719.208+1650.4C714.385+1642.76+701.477+1619.09+724.618+1616.15C744.343+1613.64+747.155+1626.97+747.138+1634.83C756.758+1631.04+774.438+1626.39+780.845+1639.99C788.369+1655.93+753.171+1659.21+741.497+1659.85L742.281+1660.18L710.602+1695.63L682.263+1732.74L682.195+1732.71C687.333+1740.93+699.006+1763.27+676.503+1766.14C656.778+1768.65+653.864+1755.44+653.805+1747.67C644.253+1751.37+626.684+1755.89+620.276+1742.3C612.966+1726.8+645.94+1723.39+658.482+1722.65" opacity="1" fill="#ffffff"/>
<path d="M1120.91+1722.65L1120.84+1722.63L1152.65+1687L1180.85+1650.07L1181.63+1650.4C1176.81+1642.76+1163.9+1619.09+1187.04+1616.15C1206.77+1613.64+1209.58+1626.97+1209.56+1634.83C1219.18+1631.04+1236.86+1626.39+1243.27+1639.99C1250.79+1655.93+1215.59+1659.21+1203.92+1659.85L1204.71+1660.18L1173.03+1695.63L1144.69+1732.74L1144.62+1732.71C1149.76+1740.93+1161.43+1763.27+1138.93+1766.14C1119.2+1768.65+1116.29+1755.44+1116.23+1747.67C1106.68+1751.37+1089.11+1755.89+1082.7+1742.3C1075.39+1726.8+1108.36+1723.39+1120.91+1722.65" opacity="1" fill="#ffffff"/>
<path d="M1583.33+1722.65L1583.26+1722.63L1615.08+1687L1643.27+1650.07L1644.06+1650.4C1639.23+1642.76+1626.33+1619.09+1649.47+1616.15C1669.19+1613.64+1672+1626.97+1671.99+1634.83C1681.61+1631.04+1699.29+1626.39+1705.69+1639.99C1713.22+1655.93+1678.02+1659.21+1666.35+1659.85L1667.13+1660.18L1635.45+1695.63L1607.11+1732.74L1607.04+1732.71C1612.18+1740.93+1623.86+1763.27+1601.35+1766.14C1581.63+1768.65+1578.71+1755.44+1578.65+1747.67C1569.1+1751.37+1551.53+1755.89+1545.13+1742.3C1537.82+1726.8+1570.79+1723.39+1583.33+1722.65" opacity="1" fill="#ffffff"/>
<path d="M2045.76+1722.65L2045.69+1722.63L2077.5+1687L2105.7+1650.07L2106.48+1650.4C2101.66+1642.76+2088.75+1619.09+2111.89+1616.15C2131.62+1613.64+2134.43+1626.97+2134.41+1634.83C2144.03+1631.04+2161.71+1626.39+2168.12+1639.99C2175.64+1655.93+2140.44+1659.21+2128.77+1659.85L2129.56+1660.18L2097.88+1695.63L2069.54+1732.74L2069.47+1732.71C2074.61+1740.93+2086.28+1763.27+2063.78+1766.14C2044.05+1768.65+2041.14+1755.44+2041.08+1747.67C2031.53+1751.37+2013.96+1755.89+2007.55+1742.3C2000.24+1726.8+2033.21+1723.39+2045.76+1722.65" opacity="1" fill="#ffffff"/>
<path d="M2508.18+1722.65L2508.11+1722.63L2539.93+1687L2568.12+1650.07L2568.91+1650.4C2564.08+1642.76+2551.18+1619.09+2574.32+1616.15C2594.04+1613.64+2596.85+1626.97+2596.84+1634.83C2606.46+1631.04+2624.14+1626.39+2630.54+1639.99C2638.07+1655.93+2602.87+1659.21+2591.2+1659.85L2591.98+1660.18L2560.3+1695.63L2531.96+1732.74L2531.89+1732.71C2537.03+1740.93+2548.71+1763.27+2526.2+1766.14C2506.48+1768.65+2503.56+1755.44+2503.5+1747.67C2493.95+1751.37+2476.38+1755.89+2469.98+1742.3C2462.67+1726.8+2495.64+1723.39+2508.18+1722.65" opacity="1" fill="#ffffff"/>
<path d="M2970.61+1722.65L2970.54+1722.63L3002.35+1687L3030.55+1650.07L3031.33+1650.4C3026.51+1642.76+3013.6+1619.09+3036.74+1616.15C3056.47+1613.64+3059.28+1626.97+3059.26+1634.83C3068.88+1631.04+3086.56+1626.39+3092.97+1639.99C3100.49+1655.93+3065.29+1659.21+3053.62+1659.85L3054.41+1660.18L3022.73+1695.63L2994.39+1732.74L2994.32+1732.71C2999.46+1740.93+3011.13+1763.27+2988.63+1766.14C2968.9+1768.65+2965.99+1755.44+2965.93+1747.67C2956.38+1751.37+2938.81+1755.89+2932.4+1742.3C2925.09+1726.8+2958.06+1723.39+2970.61+1722.65" opacity="1" fill="#ffffff"/>
<path d="M3433.03+1722.65L3432.96+1722.63L3464.78+1687L3492.97+1650.07L3493.76+1650.4C3488.93+1642.76+3476.03+1619.09+3499.17+1616.15C3518.89+1613.64+3521.7+1626.97+3521.69+1634.83C3531.31+1631.04+3548.99+1626.39+3555.39+1639.99C3562.92+1655.93+3527.72+1659.21+3516.05+1659.85L3516.83+1660.18L3485.15+1695.63L3456.81+1732.74L3456.74+1732.71C3461.88+1740.93+3473.56+1763.27+3451.05+1766.14C3431.33+1768.65+3428.41+1755.44+3428.35+1747.67C3418.8+1751.37+3401.23+1755.89+3394.83+1742.3C3387.52+1726.8+3420.49+1723.39+3433.03+1722.65" opacity="1" fill="#ffffff"/>
</g>
</g>
</g>
<path d="M1263.2+845.152C1263.2+523.133+1002.15+262.084+680.127+262.084C358.108+262.084+97.0591+523.133+97.0591+845.152C97.0591+978.785+142.1+1101.83+217.747+1200.13C474.771+1088.32+508.645+553.631+508.645+553.631C508.645+553.631+923.624+378.785+1009.8+871.439C1052.34+1114.66+959.22+1288.2+854.018+1401.6C1091.07+1327.6+1263.2+1106.58+1263.2+845.152" opacity="1" fill="#7ec7c2"/>
<path d="M1009.82+869.079C923.641+376.425+508.662+551.271+508.662+551.271C508.662+551.271+474.788+1085.96+217.764+1197.77C264.83+1258.94+323.717+1310.53+391.061+1349.07C477.302+1238.21+595.51+1223.17+595.51+1223.17L820.883+1408.65C832.08+1405.88+843.103+1402.66+854.035+1399.24C959.237+1285.84+1052.36+1112.3+1009.82+869.079" opacity="1" fill="#b26e24"/>
<path d="M1082.57+427.67C1084.06+416.169+1092.19+406.636+1103.3+403.332C1114.41+400.015+1126.42+403.575+1133.96+412.386L1403.65+727.779C1409.86+735.031+1412.14+744.858+1409.78+754.117L1341.93+1019.36C1340+1026.92+1335.13+1033.41+1328.39+1037.36C1323.84+1040.05+1318.7+1041.42+1313.51+1041.42C1311.02+1041.42+1308.52+1041.11+1306.06+1040.46C1298.65+1038.51+1124.06+991.179+1083.44+848.371C1045.72+715.74+1081.05+439.363+1082.57+427.67" opacity="1" fill="#634e42"/>
<path d="M1211.37+877.308L1211.43+877.167C1211.43+877.167+1211.04+876.784+1210.37+875.986C1209.9+875.346+1209.44+874.701+1208.95+874.075C1201.25+863.04+1178.69+818.683+1187.5+685.893C1194.33+664.654+1198.05+642.016+1198.05+618.502L1198.05+526.823C1183.39+290.209+935.758+292.138+814.243+292.138L758.018+292.138C636.506+292.138+508.662+405.312+508.662+526.823L508.662+618.502C508.662+648.105+514.546+676.347+525.153+702.123L525.163+702.142C529.508+712.685+515.834+724.985+521.684+734.634C665.697+1073.7+781.771+1135.55+1099.04+1135.55C1176+1135.55+1238.4+1073.16+1238.4+996.194L1238.4+959.523C1238.4+928.732+1228.28+900.375+1211.37+877.308" opacity="1" fill="#ff8f15"/>
<path d="M846.026+606.279C846.026+636.655+821.394+661.281+791.02+661.281C760.638+661.281+736.019+636.655+736.019+606.279C736.019+575.889+760.638+551.27+791.02+551.27C821.394+551.27+846.026+575.889+846.026+606.279" opacity="1" fill="#3c3c3b"/>
<path d="M1183.39+606.279C1183.39+636.655+1158.76+661.281+1128.38+661.281C1098+661.281+1073.38+636.655+1073.38+606.279C1073.38+575.889+1098+551.27+1128.38+551.27C1158.76+551.27+1183.39+575.889+1183.39+606.279" opacity="1" fill="#3c3c3b"/>
<path d="M831.338+592.748C831.338+602.199+823.674+609.86+814.226+609.86C804.773+609.86+797.115+602.199+797.115+592.748C797.115+583.298+804.773+575.643+814.226+575.643C823.674+575.643+831.338+583.298+831.338+592.748" opacity="1" fill="#ffffff"/>
<path d="M1171.87+590.388C1171.87+599.839+1164.2+607.5+1154.75+607.5C1145.3+607.5+1137.64+599.839+1137.64+590.388C1137.64+580.938+1145.3+573.283+1154.75+573.283C1164.2+573.283+1171.87+580.938+1171.87+590.388" opacity="1" fill="#ffffff"/>
<path d="M563.59+427.67C562.095+416.169+553.967+406.636+542.859+403.332C531.745+400.015+519.732+403.575+512.201+412.386L242.511+727.779C236.31+735.031+234.019+744.858+236.38+754.117L304.222+1019.36C306.161+1026.92+311.03+1033.41+317.765+1037.36C322.317+1040.05+327.461+1041.42+332.647+1041.42C335.138+1041.42+337.643+1041.11+340.096+1040.46C347.502+1038.51+522.099+991.179+562.715+848.371C600.436+715.74+565.111+439.363+563.59+427.67" opacity="1" fill="#634e42"/>
<path d="M1066.08+1096.19C1066.08+1096.19+1110.36+1137.4+1128.37+1245.48" opacity="1" fill="#3c3c3b"/>
<path d="M1128.28+1315.16C1094.83+1315.16+1065.32+1291+1059.64+1256.91C1046.44+1177.67+1010.09+1087.61+1009.8+1087.31C1010.8+1088.36+1009.8+1087.31+1009.8+1087.31L1155.95+1080.62C1166.24+1090.2+1176.25+1108.89+1197.09+1234.03C1203.41+1271.97+1177.77+1307.88+1139.81+1314.21C1135.94+1314.85+1132.08+1315.15+1128.28+1315.16" opacity="1" fill="#f4a29d"/>
<path d="M1172.6+1047.38C1158.47+1062.72+1139.74+1071.61+1118.6+1075.98L1118.6+1005.06C1163.6+999.925+1198.05+971.69+1198.05+937.531C1198.05+899.73+1155.92+869.078+1103.93+869.078C1051.95+869.078+1009.82+899.73+1009.82+937.531C1009.82+971.69+1044.27+999.925+1089.27+1005.06L1089.27+1079.24C997.476+1081.99+881.737+1024.26+880.152+1023.45C872.909+1019.79+864.102+1022.69+860.444+1029.92C856.785+1037.14+859.67+1045.96+866.897+1049.62C873.539+1052.99+984.54+1108.42+1082.53+1108.42C1125.57+1108.42+1166.1+1097.74+1194.17+1067.26C1199.67+1061.3+1199.28+1052.01+1193.32+1046.53C1187.37+1041.03+1178.1+1041.42+1172.6+1047.38" opacity="1" fill="#3c3c3b"/>
<path d="M1115.45+1399.58C1047.63+1193.53+834.204+1179.87+730.826+1201.45C660.367+1215.84+632.093+1220.37+596.266+1226.17L595.493+1225.53C595.493+1225.53+477.285+1240.58+391.044+1351.44C476.269+1400.2+574.896+1428.22+680.127+1428.22C689.58+1428.22+698.96+1427.93+708.303+1427.47C735.756+1453.56+749.254+1499.91+755.816+1536.87C763.701+1581.26+802.326+1612.48+845.903+1612.47C851.217+1612.47+856.606+1612.01+862.021+1611.05C911.835+1602.2+945.045+1554.65+936.198+1504.84C929.872+1469.22+920.796+1436.83+909.106+1407.65C922.851+1419.34+934.32+1435.26+941.429+1456.86C954.118+1495.41+989.938+1519.85+1028.42+1519.85C1037.92+1519.85+1047.57+1518.36+1057.08+1515.23C1105.13+1499.41+1131.27+1447.63+1115.45+1399.58" opacity="1" fill="#ff8f15"/>
</g>
</svg>
